<?xml version="1.0" encoding="utf-8"?>
<!-- Generator: Adobe Illustrator 23.1.1, SVG Export Plug-In . SVG Version: 6.00 Build 0)  -->
<svg version="1.1" id="Layer_1" xmlns="http://www.w3.org/2000/svg" xmlns:xlink="http://www.w3.org/1999/xlink" x="0px" y="0px"
	 viewBox="0 0 971 302" style="enable-background:new 0 0 971 302;" xml:space="preserve">
<style type="text/css">
	.st0{clip-path:url(#SVGID_2_);fill:#414141;}
	.st1{clip-path:url(#SVGID_4_);fill:#414141;}
	.st2{clip-path:url(#SVGID_6_);fill:#414141;}
	.st3{fill:#414141;}
	.st4{fill:url(#SVGID_7_);}
	.st5{fill:url(#SVGID_8_);}
</style>
<g>
	<g>
		<g>
			<defs>
				<path id="SVGID_1_" d="M302.7,80.7c-8.6,3.4-16.3,8.5-23.1,15.3c-6.8,6.8-11.9,14.5-15.2,23.1c-3.3,8.6-5,17.4-5,26.3
					c0,9,1.7,17.7,5,26.2c3.3,8.5,8.4,16.2,15.2,23c6.8,6.8,14.5,11.9,23.1,15.3c8.6,3.4,17.4,5.1,26.3,5.1c3.7,0,7.4-0.3,11.1-0.8
					c3.7-0.6,7.4-1.5,10.9-2.8v3.4h32.2v-77.9h-60v32H351v7c-3.7,2.7-7.6,4.6-11.9,5.7c-4.3,1.1-8.6,1.6-13,1.2
					c-4.4-0.3-8.6-1.4-12.7-3.2c-4.1-1.8-7.8-4.4-11.1-7.7c-3.7-3.7-6.4-7.8-8.3-12.5c-1.9-4.7-2.9-9.4-2.9-14.2
					c0-4.8,1-9.5,2.9-14.2c1.9-4.7,4.7-8.8,8.3-12.5c3.7-3.7,7.8-6.4,12.5-8.2c4.7-1.8,9.4-2.8,14.2-2.8c4.8,0,9.5,0.9,14.2,2.8
					c4.7,1.8,8.8,4.6,12.5,8.2L378.5,96c-6.8-6.8-14.5-11.9-23.1-15.3c-8.6-3.4-17.4-5.1-26.3-5.1C320,75.6,311.3,77.3,302.7,80.7"
					/>
			</defs>
			<use xlink:href="#SVGID_1_"  style="overflow:visible;fill:#414141;"/>
			<clipPath id="SVGID_2_">
				<use xlink:href="#SVGID_1_"  style="overflow:visible;"/>
			</clipPath>
			<rect x="259.3" y="75.6" class="st0" width="123.9" height="139.6"/>
		</g>
		<g>
			<defs>
				<path id="SVGID_3_" d="M461.8,132.3l11,33.7h-22.5L461.8,132.3z M447.1,75.8l-47.4,139h33.9l5.7-16.9h43.8l5.5,16.9h33.7
					l-44.9-139H447.1z"/>
			</defs>
			<use xlink:href="#SVGID_3_"  style="overflow:visible;fill:#414141;"/>
			<clipPath id="SVGID_4_">
				<use xlink:href="#SVGID_3_"  style="overflow:visible;"/>
			</clipPath>
			<rect x="399.7" y="75.8" class="st1" width="122.6" height="139"/>
		</g>
		<g>
			<defs>
				<path id="SVGID_5_" d="M566,108.1c3.4,0.1,6.7,0.7,9.8,1.8c3.1,1.1,5.8,2.5,8.1,4.3c2.3,1.8,4.2,3.8,5.5,6.1
					c1.3,2.3,2,4.7,2,7.4c0,2.7-0.7,5.1-2,7.5c-1.3,2.3-3.2,4.4-5.5,6.2c-2.3,1.8-5,3.2-8.1,4.3c-3.1,1.1-6.3,1.7-9.8,1.8V108.1z
					 M534.1,76.1v138.5h32v-35c1.8-0.1,3.5-0.3,5.1-0.4c1.6-0.1,3.3-0.3,4.9-0.6l22.3,36h37.7L605.4,165c5.7-4.6,11.4-9.4,15.3-15.4
					c4.1-6.4,6.3-14.1,6.3-21.6c0-7.1-1.3-14.8-4.2-21c-3-6.2-6.7-12-12-16.6c-5.2-4.7-10.9-7.3-18.2-10.2
					c-6.9-2.8-18.5-3.9-26.5-4.1H534.1z"/>
			</defs>
			<use xlink:href="#SVGID_5_"  style="overflow:visible;fill:#414141;"/>
			<clipPath id="SVGID_6_">
				<use xlink:href="#SVGID_5_"  style="overflow:visible;"/>
			</clipPath>
			<rect x="534.1" y="76.1" class="st2" width="102.1" height="138.5"/>
		</g>
		<polygon class="st3" points="732.1,75.8 764.1,75.8 764.1,214.9 729.5,214.9 684,133.8 684,214.9 652,214.9 652,76.2 686.8,76.2 
			732.1,157.1 		"/>
		<polygon class="st3" points="869.2,107.9 812,107.9 812,128.9 858.4,128.9 858.4,160.9 812,160.9 812,182.9 869.2,182.9 
			869.2,214.9 780,214.9 780,76 869.2,75.8 		"/>
		<polygon class="st3" points="965.9,75.6 965.9,107.6 939.2,107.6 939.2,215.2 907.2,215.2 907.2,107.6 880.7,107.6 880.7,75.6 		
			"/>
	</g>
	<g>
		<linearGradient id="SVGID_7_" gradientUnits="userSpaceOnUse" x1="86.3463" y1="42.9408" x2="202.2642" y2="42.9408">
			<stop  offset="0" style="stop-color:#EFAB27"/>
			<stop  offset="1" style="stop-color:#EF8D24"/>
		</linearGradient>
		<path class="st4" d="M115.3,61.8c0-16,13-29,29-29s29,13,29,29v10.9c10,2.1,19.7,5.1,29,9.4V61.8c0-32-26-58-58-58
			c-32,0-58,26-58,58v20.3c9.3-4.2,19-7.3,29-9.4V61.8z"/>
		<linearGradient id="SVGID_8_" gradientUnits="userSpaceOnUse" x1="3.5728" y1="155.9754" x2="216.7535" y2="155.9754">
			<stop  offset="0" style="stop-color:#EFAB27"/>
			<stop  offset="1" style="stop-color:#EF8D24"/>
		</linearGradient>
		<path class="st5" d="M211.2,94.6c-41.2-24.5-92.5-24.5-133.8,0c-2.6,8.2-4.3,16.8-5.1,25.8H58.2c-1.9-5.7-7.2-9.9-13.6-9.9
			c-7.9,0-14.3,6.4-14.3,14.3s6.4,14.3,14.3,14.3c6,0,11.1-3.7,13.3-8.9h14c0,0.2,0,0.3,0,0.5c0,9.4,1.1,18.5,3.1,27.2H31.5
			c-1.9-5.7-7.2-9.9-13.6-9.9c-7.9,0-14.3,6.4-14.3,14.3c0,7.9,6.4,14.3,14.3,14.3c6,0,11.1-3.7,13.3-8.9h46.5
			c3,9.4,7.2,18.1,12.3,26.1H65.6c-1.9-5.7-7.2-9.9-13.6-9.9c-7.9,0-14.3,6.4-14.3,14.3c0,7.9,6.4,14.3,14.3,14.3
			c6,0,11.1-3.7,13.3-8.9h31.9c12.5,15.2,28.7,26.4,47.1,31.8c41.6-12.1,72.5-54.3,72.5-104.8C216.8,118.1,214.8,105.9,211.2,94.6z
			 M44.5,130c-2.9,0-5.2-2.3-5.2-5.2c0-2.9,2.3-5.2,5.2-5.2c2.9,0,5.2,2.3,5.2,5.2C49.7,127.7,47.4,130,44.5,130z M17.7,167.5
			c-2.9,0-5.2-2.3-5.2-5.2c0-2.9,2.3-5.2,5.2-5.2c2.9,0,5.2,2.3,5.2,5.2C22.9,165.2,20.5,167.5,17.7,167.5z M52,203.8
			c-2.9,0-5.2-2.3-5.2-5.2c0-2.9,2.3-5.2,5.2-5.2c2.9,0,5.2,2.3,5.2,5.2C57.1,201.5,54.8,203.8,52,203.8z M158.8,177.7h-29l5.4-32.4
			c-3.2-2.7-5.4-6.5-5.4-11c0-8,6.5-14.5,14.5-14.5c8,0,14.5,6.5,14.5,14.5c0,4.5-2.2,8.4-5.4,11L158.8,177.7z"/>
	</g>
	<g>
		<g>
			<path class="st3" d="M382,285c0.3-0.1,0.8-0.2,1.4-0.2c0.6,0,1.1,0.2,1.6,0.7c0.5,0.5,0.7,1,0.7,1.6c0,1.1-0.5,1.9-1.4,2.4
				c-1.9,1.1-4,2-6.2,2.7c-2.2,0.7-4.8,1.1-7.9,1.1c-3.1,0-6-0.5-8.6-1.5c-2.6-1-4.9-2.5-6.8-4.4c-4.1-4-6.2-9.5-6.2-16.3
				c0-6.8,2.1-12.2,6.2-16.3c4-3.9,9.1-5.9,15.5-5.9c3.1,0,5.7,0.4,7.9,1.1c2.2,0.8,3.9,1.4,5,2.1c1.2,0.6,1.9,1.1,2.2,1.5
				c0.3,0.4,0.4,0.9,0.4,1.5c0,0.6-0.2,1.1-0.7,1.6c-0.5,0.5-1,0.7-1.6,0.7c-0.6,0-1-0.1-1.4-0.2c-1.7-0.9-3.4-1.6-5.1-2.2
				c-1.7-0.5-3.9-0.8-6.5-0.8c-2.6,0-4.9,0.4-7,1.3c-2.1,0.9-3.8,2.1-5.3,3.6c-2.8,3-4.1,7-4.1,11.9c0,4.9,1.4,8.9,4.1,11.9
				c3,3.3,7.2,4.9,12.5,4.9c2.4,0,4.5-0.3,6.2-0.8C378.7,286.6,380.4,285.9,382,285z"/>
		</g>
		<g>
			<path class="st3" d="M436.3,255.1c3.9-4.1,9.2-6.2,15.7-6.2c6.5,0,11.8,2.1,15.7,6.2c3.8,4.1,5.8,9.4,6,16
				c-0.2,6.5-2.1,11.9-6,16c-3.9,4.1-9.2,6.2-15.7,6.2c-6.5,0-11.8-2.1-15.7-6.2c-3.9-4.1-5.9-9.5-6-16
				C430.3,264.5,432.4,259.2,436.3,255.1z M452,288c5,0,9-1.6,11.9-4.8c2.8-3.1,4.2-7.1,4.2-12.1c0-4.9-1.4-9-4.2-12.1
				c-2.9-3.3-6.9-4.9-11.9-4.8c-5,0-9,1.6-11.9,4.8c-2.8,3.1-4.2,7.2-4.2,12.1c0,4.9,1.4,9,4.2,12.1C443,286.4,447,288,452,288z"/>
		</g>
		<g>
			<path class="st3" d="M556.6,249.2c0.8,0,1.4,0.3,2,0.8c0.6,0.6,0.8,1.2,0.8,2V289c0,1.1-0.4,2.1-1.2,2.8
				c-0.8,0.8-1.8,1.2-2.9,1.2h-0.8c-1.4,0-2.4-0.6-3.3-1.7l-24-34.6v33.5c0,0.8-0.3,1.4-0.8,2c-0.6,0.6-1.2,0.8-2,0.8
				c-0.8,0-1.4-0.3-2-0.8c-0.6-0.6-0.8-1.2-0.8-2v-36.9c0-1.1,0.4-2.1,1.2-2.9c0.8-0.8,1.7-1.2,2.9-1.2h0.8c1.3,0,2.5,0.6,3.5,1.9
				l23.8,34.4V252c0-0.8,0.3-1.4,0.8-2C555.2,249.5,555.8,249.2,556.6,249.2z"/>
		</g>
		<g>
			<path class="st3" d="M640.2,250.3c0.5,0.5,0.8,1.1,0.8,1.9s-0.3,1.3-0.8,1.8c-0.5,0.5-1.1,0.8-1.9,0.8h-12.6v35.4
				c0,0.8-0.3,1.4-0.8,2c-0.5,0.6-1.2,0.8-2,0.8c-0.8,0-1.4-0.3-2-0.8c-0.6-0.6-0.8-1.2-0.8-2v-35.4h-12.6c-0.7,0-1.3-0.3-1.9-0.8
				c-0.5-0.5-0.8-1.1-0.8-1.9c0-0.7,0.3-1.3,0.8-1.9c0.5-0.5,1.1-0.8,1.9-0.8h30.8C639.1,249.5,639.7,249.7,640.2,250.3z"/>
		</g>
		<g>
			<path class="st3" d="M720.1,290.2c0,0.8-0.3,1.4-0.8,2c-0.5,0.6-1.2,0.8-2,0.8c-0.8,0-1.5-0.3-2-0.8c-0.5-0.5-0.8-1.2-0.8-2v-1.9
				c0-3.3-0.4-5.8-1.1-7.3c-0.7-1.6-1.7-2.8-3-3.7c-1.3-0.9-3.1-1.4-5.5-1.4h-12.8v14.4c0,0.8-0.3,1.4-0.8,2c-0.5,0.6-1.2,0.8-2,0.8
				c-0.8,0-1.4-0.3-2-0.8c-0.6-0.6-0.8-1.2-0.8-2v-37.8c0-0.8,0.3-1.4,0.8-2c0.5-0.6,1.2-0.9,2-0.9h14.4c5.6,0,9.9,1.2,12.8,3.6
				c2.7,2.3,4.1,5.2,4,8.9c0,2.4-0.7,4.6-2,6.7c-1.3,2.1-3.4,3.6-6.2,4.5c3,0.8,5.1,2.9,6.5,6.5c0.9,2.3,1.3,4.9,1.3,7.7V290.2z
				 M703.3,270.5c3.5,0,6.3-0.7,8.4-2c2.1-1.3,3.2-3.3,3.2-6c0-2.5-0.8-4.3-2.5-5.6c-2-1.4-5.1-2.1-9.4-2.1h-10.9v15.7H703.3z"/>
		</g>
		<g>
			<path class="st3" d="M772.6,255.1c3.9-4.1,9.2-6.2,15.7-6.2c6.5,0,11.8,2.1,15.7,6.2c3.8,4.1,5.8,9.4,6,16
				c-0.2,6.5-2.1,11.9-6,16c-3.9,4.1-9.2,6.2-15.7,6.2c-6.6,0-11.8-2.1-15.7-6.2c-3.9-4.1-5.9-9.5-6-16
				C766.7,264.5,768.7,259.2,772.6,255.1z M788.4,288c5,0,9-1.6,11.9-4.8c2.8-3.1,4.2-7.1,4.2-12.1c0-4.9-1.4-9-4.2-12.1
				c-2.9-3.3-6.9-4.9-11.9-4.8c-5,0-9,1.6-11.9,4.8c-2.8,3.1-4.2,7.2-4.2,12.1c0,4.9,1.4,9,4.2,12.1
				C779.3,286.4,783.3,288,788.4,288z"/>
		</g>
		<g>
			<path class="st3" d="M885.9,287.9c0.5,0.5,0.8,1.2,0.8,2c0,0.8-0.3,1.4-0.8,2c-0.5,0.6-1.2,0.8-2,0.8h-22c-1.1,0-2-0.4-2.8-1.1
				c-0.8-0.8-1.1-1.7-1.1-2.8V252c0-0.8,0.3-1.4,0.8-2c0.6-0.6,1.2-0.9,2-0.9c0.8,0,1.4,0.3,2,0.8c0.6,0.6,0.9,1.2,0.9,2v35.1h20.2
				C884.7,287.1,885.4,287.4,885.9,287.9z"/>
		</g>
	</g>
</g>
</svg>
